<?xml version="1.0" standalone="no"?>
<!DOCTYPE svg PUBLIC "-//W3C//DTD SVG 20010904//EN"
 "http://www.w3.org/TR/2001/REC-SVG-20010904/DTD/svg10.dtd">
<svg version="1.0" xmlns="http://www.w3.org/2000/svg"
 width="512.000000pt" height="512.000000pt" viewBox="0 0 512.000000 512.000000"
 preserveAspectRatio="xMidYMid meet">

<g transform="translate(0.000000,512.000000) scale(0.100000,-0.100000)"
fill="#000000" stroke="none">
<path d="M477 4523 l-157 -158 902 -902 903 -903 -903 -903 -902 -902 160
-160 160 -160 1063 1063 1062 1062 -1060 1060 c-583 583 -1062 1060 -1065
1060 -3 0 -76 -71 -163 -157z"/>
<path d="M2510 4525 l-155 -155 905 -905 905 -905 -905 -905 -905 -905 158
-157 157 -158 1063 1063 1062 1062 -1060 1060 c-583 583 -1062 1060 -1065
1060 -3 0 -75 -70 -160 -155z"/>
</g>
</svg>
